%TF.GenerationSoftware,KiCad,Pcbnew,9.0.7*%
%TF.CreationDate,2026-04-28T15:53:05+05:30*%
%TF.ProjectId,keyboard_kicad,6b657962-6f61-4726-945f-6b696361642e,rev?*%
%TF.SameCoordinates,Original*%
%TF.FileFunction,Other,ECO1*%
%FSLAX46Y46*%
G04 Gerber Fmt 4.6, Leading zero omitted, Abs format (unit mm)*
G04 Created by KiCad (PCBNEW 9.0.7) date 2026-04-28 15:53:05*
%MOMM*%
%LPD*%
G01*
G04 APERTURE LIST*
%ADD10C,0.100000*%
G04 APERTURE END LIST*
D10*
%TO.C,SW83*%
X395966860Y-220270352D02*
X395966860Y-234270352D01*
X395966860Y-234270352D02*
X409966860Y-234270352D01*
X409966860Y-220270352D02*
X395966860Y-220270352D01*
X409966860Y-234270352D02*
X409966860Y-220270352D01*
%TO.C,SW71*%
X319766860Y-201220352D02*
X319766860Y-215220352D01*
X319766860Y-215220352D02*
X333766860Y-215220352D01*
X333766860Y-201220352D02*
X319766860Y-201220352D01*
X333766860Y-215220352D02*
X333766860Y-201220352D01*
%TO.C,SW4*%
X162604360Y-125020352D02*
X162604360Y-139020352D01*
X162604360Y-139020352D02*
X176604360Y-139020352D01*
X176604360Y-125020352D02*
X162604360Y-125020352D01*
X176604360Y-139020352D02*
X176604360Y-125020352D01*
%TO.C,SW54*%
X253091860Y-182170352D02*
X253091860Y-196170352D01*
X253091860Y-196170352D02*
X267091860Y-196170352D01*
X267091860Y-182170352D02*
X253091860Y-182170352D01*
X267091860Y-196170352D02*
X267091860Y-182170352D01*
%TO.C,SW41*%
X286429360Y-163120352D02*
X286429360Y-177120352D01*
X286429360Y-177120352D02*
X300429360Y-177120352D01*
X300429360Y-163120352D02*
X286429360Y-163120352D01*
X300429360Y-177120352D02*
X300429360Y-163120352D01*
%TO.C,SW75*%
X131648110Y-220270352D02*
X131648110Y-234270352D01*
X131648110Y-234270352D02*
X145648110Y-234270352D01*
X145648110Y-220270352D02*
X131648110Y-220270352D01*
X145648110Y-234270352D02*
X145648110Y-220270352D01*
%TO.C,SW18*%
X124504360Y-144070352D02*
X124504360Y-158070352D01*
X124504360Y-158070352D02*
X138504360Y-158070352D01*
X138504360Y-144070352D02*
X124504360Y-144070352D01*
X138504360Y-158070352D02*
X138504360Y-144070352D01*
%TO.C,SW38*%
X229279360Y-163120352D02*
X229279360Y-177120352D01*
X229279360Y-177120352D02*
X243279360Y-177120352D01*
X243279360Y-163120352D02*
X229279360Y-163120352D01*
X243279360Y-177120352D02*
X243279360Y-163120352D01*
%TO.C,SW44*%
X343579360Y-163120352D02*
X343579360Y-177120352D01*
X343579360Y-177120352D02*
X357579360Y-177120352D01*
X357579360Y-163120352D02*
X343579360Y-163120352D01*
X357579360Y-177120352D02*
X357579360Y-163120352D01*
%TO.C,SW82*%
X376916860Y-220270352D02*
X376916860Y-234270352D01*
X376916860Y-234270352D02*
X390916860Y-234270352D01*
X390916860Y-220270352D02*
X376916860Y-220270352D01*
X390916860Y-234270352D02*
X390916860Y-220270352D01*
%TO.C,SW46*%
X395966608Y-163120312D02*
X395966608Y-177120312D01*
X395966608Y-177120312D02*
X409966608Y-177120312D01*
X409966608Y-163120312D02*
X395966608Y-163120312D01*
X409966608Y-177120312D02*
X409966608Y-163120312D01*
%TO.C,SW9*%
X257854360Y-125020352D02*
X257854360Y-139020352D01*
X257854360Y-139020352D02*
X271854360Y-139020352D01*
X271854360Y-125020352D02*
X257854360Y-125020352D01*
X271854360Y-139020352D02*
X271854360Y-125020352D01*
%TO.C,SW15*%
X372154360Y-125020352D02*
X372154360Y-139020352D01*
X372154360Y-139020352D02*
X386154360Y-139020352D01*
X386154360Y-125020352D02*
X372154360Y-125020352D01*
X386154360Y-139020352D02*
X386154360Y-125020352D01*
%TO.C,SW81*%
X357866860Y-220270352D02*
X357866860Y-234270352D01*
X357866860Y-234270352D02*
X371866860Y-234270352D01*
X371866860Y-220270352D02*
X357866860Y-220270352D01*
X371866860Y-234270352D02*
X371866860Y-220270352D01*
%TO.C,SW58*%
X329291860Y-182170352D02*
X329291860Y-196170352D01*
X329291860Y-196170352D02*
X343291860Y-196170352D01*
X343291860Y-182170352D02*
X329291860Y-182170352D01*
X343291860Y-196170352D02*
X343291860Y-182170352D01*
%TO.C,SW43*%
X324529360Y-163120352D02*
X324529360Y-177120352D01*
X324529360Y-177120352D02*
X338529360Y-177120352D01*
X338529360Y-163120352D02*
X324529360Y-163120352D01*
X338529360Y-177120352D02*
X338529360Y-163120352D01*
%TO.C,SW6*%
X200704360Y-125020352D02*
X200704360Y-139020352D01*
X200704360Y-139020352D02*
X214704360Y-139020352D01*
X214704360Y-125020352D02*
X200704360Y-125020352D01*
X214704360Y-139020352D02*
X214704360Y-125020352D01*
%TO.C,SW22*%
X200704360Y-144070352D02*
X200704360Y-158070352D01*
X200704360Y-158070352D02*
X214704360Y-158070352D01*
X214704360Y-144070352D02*
X200704360Y-144070352D01*
X214704360Y-158070352D02*
X214704360Y-144070352D01*
%TO.C,SW60*%
X395966608Y-182170296D02*
X395966608Y-196170296D01*
X395966608Y-196170296D02*
X409966608Y-196170296D01*
X409966608Y-182170296D02*
X395966608Y-182170296D01*
X409966608Y-196170296D02*
X409966608Y-182170296D01*
%TO.C,SW37*%
X210229360Y-163120352D02*
X210229360Y-177120352D01*
X210229360Y-177120352D02*
X224229360Y-177120352D01*
X224229360Y-163120352D02*
X210229360Y-163120352D01*
X224229360Y-177120352D02*
X224229360Y-163120352D01*
%TO.C,SW52*%
X214991860Y-182170352D02*
X214991860Y-196170352D01*
X214991860Y-196170352D02*
X228991860Y-196170352D01*
X228991860Y-182170352D02*
X214991860Y-182170352D01*
X228991860Y-196170352D02*
X228991860Y-182170352D01*
%TO.C,SW36*%
X191179360Y-163120352D02*
X191179360Y-177120352D01*
X191179360Y-177120352D02*
X205179360Y-177120352D01*
X205179360Y-163120352D02*
X191179360Y-163120352D01*
X205179360Y-177120352D02*
X205179360Y-163120352D01*
%TO.C,SW50*%
X176891860Y-182170352D02*
X176891860Y-196170352D01*
X176891860Y-196170352D02*
X190891860Y-196170352D01*
X190891860Y-182170352D02*
X176891860Y-182170352D01*
X190891860Y-196170352D02*
X190891860Y-182170352D01*
%TO.C,SW33*%
X134029360Y-163120352D02*
X134029360Y-177120352D01*
X134029360Y-177120352D02*
X148029360Y-177120352D01*
X148029360Y-163120352D02*
X134029360Y-163120352D01*
X148029360Y-177120352D02*
X148029360Y-163120352D01*
%TO.C,SW45*%
X365010610Y-163120352D02*
X365010610Y-177120352D01*
X365010610Y-177120352D02*
X379010610Y-177120352D01*
X379010610Y-163120352D02*
X365010610Y-163120352D01*
X379010610Y-177120352D02*
X379010610Y-163120352D01*
%TO.C,SW59*%
X351872906Y-182625304D02*
X351872906Y-194925304D01*
X351872906Y-194925304D02*
X358622906Y-194925304D01*
X358622906Y-182625304D02*
X351872906Y-182625304D01*
X358622906Y-194925304D02*
X358622906Y-182625304D01*
X360227906Y-182170304D02*
X360227906Y-196170304D01*
X360227906Y-196170304D02*
X374227906Y-196170304D01*
X374227906Y-182170304D02*
X360227906Y-182170304D01*
X374227906Y-196170304D02*
X374227906Y-182170304D01*
X375748906Y-182625304D02*
X375748906Y-194925304D01*
X375748906Y-194925304D02*
X382498906Y-194925304D01*
X382498906Y-182625304D02*
X375748906Y-182625304D01*
X382498906Y-194925304D02*
X382498906Y-182625304D01*
%TO.C,SW2*%
X124504360Y-125020352D02*
X124504360Y-139020352D01*
X124504360Y-139020352D02*
X138504360Y-139020352D01*
X138504360Y-125020352D02*
X124504360Y-125020352D01*
X138504360Y-139020352D02*
X138504360Y-125020352D01*
%TO.C,SW35*%
X172129360Y-163120352D02*
X172129360Y-177120352D01*
X172129360Y-177120352D02*
X186129360Y-177120352D01*
X186129360Y-163120352D02*
X172129360Y-163120352D01*
X186129360Y-177120352D02*
X186129360Y-163120352D01*
%TO.C,SW74*%
X107835610Y-220270352D02*
X107835610Y-234270352D01*
X107835610Y-234270352D02*
X121835610Y-234270352D01*
X121835610Y-220270352D02*
X107835610Y-220270352D01*
X121835610Y-234270352D02*
X121835610Y-220270352D01*
%TO.C,SW20*%
X162604360Y-144070352D02*
X162604360Y-158070352D01*
X162604360Y-158070352D02*
X176604360Y-158070352D01*
X176604360Y-144070352D02*
X162604360Y-144070352D01*
X176604360Y-158070352D02*
X176604360Y-144070352D01*
%TO.C,SW56*%
X291191860Y-182170352D02*
X291191860Y-196170352D01*
X291191860Y-196170352D02*
X305191860Y-196170352D01*
X305191860Y-182170352D02*
X291191860Y-182170352D01*
X305191860Y-196170352D02*
X305191860Y-182170352D01*
%TO.C,SW7*%
X219754360Y-125020352D02*
X219754360Y-139020352D01*
X219754360Y-139020352D02*
X233754360Y-139020352D01*
X233754360Y-125020352D02*
X219754360Y-125020352D01*
X233754360Y-139020352D02*
X233754360Y-125020352D01*
%TO.C,SW62*%
X148316860Y-201220352D02*
X148316860Y-215220352D01*
X148316860Y-215220352D02*
X162316860Y-215220352D01*
X162316860Y-201220352D02*
X148316860Y-201220352D01*
X162316860Y-215220352D02*
X162316860Y-201220352D01*
%TO.C,SW31*%
X395966608Y-144070328D02*
X395966608Y-158070328D01*
X395966608Y-158070328D02*
X409966608Y-158070328D01*
X409966608Y-144070328D02*
X395966608Y-144070328D01*
X409966608Y-158070328D02*
X409966608Y-144070328D01*
%TO.C,SW14*%
X353104360Y-125020352D02*
X353104360Y-139020352D01*
X353104360Y-139020352D02*
X367104360Y-139020352D01*
X367104360Y-125020352D02*
X353104360Y-125020352D01*
X367104360Y-139020352D02*
X367104360Y-125020352D01*
%TO.C,SW78*%
X204866780Y-221040272D02*
X204866780Y-233340272D01*
X204866780Y-233340272D02*
X211616780Y-233340272D01*
X211616780Y-221040272D02*
X204866780Y-221040272D01*
X211616780Y-233340272D02*
X211616780Y-221040272D01*
X250710530Y-220270272D02*
X250710530Y-234270272D01*
X250710530Y-234270272D02*
X264710530Y-234270272D01*
X264710530Y-220270272D02*
X250710530Y-220270272D01*
X264710530Y-234270272D02*
X264710530Y-220270272D01*
X304866780Y-221040272D02*
X304866780Y-233340272D01*
X304866780Y-233340272D02*
X311616780Y-233340272D01*
X311616780Y-221040272D02*
X304866780Y-221040272D01*
X311616780Y-233340272D02*
X311616780Y-221040272D01*
%TO.C,SW26*%
X276904360Y-144070352D02*
X276904360Y-158070352D01*
X276904360Y-158070352D02*
X290904360Y-158070352D01*
X290904360Y-144070352D02*
X276904360Y-144070352D01*
X290904360Y-158070352D02*
X290904360Y-144070352D01*
%TO.C,SW66*%
X224516860Y-201220352D02*
X224516860Y-215220352D01*
X224516860Y-215220352D02*
X238516860Y-215220352D01*
X238516860Y-201220352D02*
X224516860Y-201220352D01*
X238516860Y-215220352D02*
X238516860Y-201220352D01*
%TO.C,SW10*%
X276904360Y-125020352D02*
X276904360Y-139020352D01*
X276904360Y-139020352D02*
X290904360Y-139020352D01*
X290904360Y-125020352D02*
X276904360Y-125020352D01*
X290904360Y-139020352D02*
X290904360Y-125020352D01*
%TO.C,SW77*%
X179273110Y-220270352D02*
X179273110Y-234270352D01*
X179273110Y-234270352D02*
X193273110Y-234270352D01*
X193273110Y-220270352D02*
X179273110Y-220270352D01*
X193273110Y-234270352D02*
X193273110Y-220270352D01*
%TO.C,SW1*%
X105454360Y-125020352D02*
X105454360Y-139020352D01*
X105454360Y-139020352D02*
X119454360Y-139020352D01*
X119454360Y-125020352D02*
X105454360Y-125020352D01*
X119454360Y-139020352D02*
X119454360Y-125020352D01*
%TO.C,SW39*%
X248329360Y-163120352D02*
X248329360Y-177120352D01*
X248329360Y-177120352D02*
X262329360Y-177120352D01*
X262329360Y-163120352D02*
X248329360Y-163120352D01*
X262329360Y-177120352D02*
X262329360Y-163120352D01*
%TO.C,SW80*%
X338816860Y-220270352D02*
X338816860Y-234270352D01*
X338816860Y-234270352D02*
X352816860Y-234270352D01*
X352816860Y-220270352D02*
X338816860Y-220270352D01*
X352816860Y-234270352D02*
X352816860Y-220270352D01*
%TO.C,SW32*%
X110216860Y-163120352D02*
X110216860Y-177120352D01*
X110216860Y-177120352D02*
X124216860Y-177120352D01*
X124216860Y-163120352D02*
X110216860Y-163120352D01*
X124216860Y-177120352D02*
X124216860Y-163120352D01*
%TO.C,SW70*%
X300716860Y-201220352D02*
X300716860Y-215220352D01*
X300716860Y-215220352D02*
X314716860Y-215220352D01*
X314716860Y-201220352D02*
X300716860Y-201220352D01*
X314716860Y-215220352D02*
X314716860Y-201220352D01*
%TO.C,SW8*%
X238804360Y-125020352D02*
X238804360Y-139020352D01*
X238804360Y-139020352D02*
X252804360Y-139020352D01*
X252804360Y-125020352D02*
X238804360Y-125020352D01*
X252804360Y-139020352D02*
X252804360Y-125020352D01*
%TO.C,SW53*%
X234041860Y-182170352D02*
X234041860Y-196170352D01*
X234041860Y-196170352D02*
X248041860Y-196170352D01*
X248041860Y-182170352D02*
X234041860Y-182170352D01*
X248041860Y-196170352D02*
X248041860Y-182170352D01*
%TO.C,SW73*%
X395966608Y-201220280D02*
X395966608Y-215220280D01*
X395966608Y-215220280D02*
X409966608Y-215220280D01*
X409966608Y-201220280D02*
X395966608Y-201220280D01*
X409966608Y-215220280D02*
X409966608Y-201220280D01*
%TO.C,SW5*%
X181654360Y-125020352D02*
X181654360Y-139020352D01*
X181654360Y-139020352D02*
X195654360Y-139020352D01*
X195654360Y-125020352D02*
X181654360Y-125020352D01*
X195654360Y-139020352D02*
X195654360Y-125020352D01*
%TO.C,SW27*%
X295954360Y-144070352D02*
X295954360Y-158070352D01*
X295954360Y-158070352D02*
X309954360Y-158070352D01*
X309954360Y-144070352D02*
X295954360Y-144070352D01*
X309954360Y-158070352D02*
X309954360Y-144070352D01*
%TO.C,SW42*%
X305479360Y-163120352D02*
X305479360Y-177120352D01*
X305479360Y-177120352D02*
X319479360Y-177120352D01*
X319479360Y-163120352D02*
X305479360Y-163120352D01*
X319479360Y-177120352D02*
X319479360Y-163120352D01*
%TO.C,SW68*%
X262616860Y-201220352D02*
X262616860Y-215220352D01*
X262616860Y-215220352D02*
X276616860Y-215220352D01*
X276616860Y-201220352D02*
X262616860Y-201220352D01*
X276616860Y-215220352D02*
X276616860Y-201220352D01*
%TO.C,SW51*%
X195941860Y-182170352D02*
X195941860Y-196170352D01*
X195941860Y-196170352D02*
X209941860Y-196170352D01*
X209941860Y-182170352D02*
X195941860Y-182170352D01*
X209941860Y-196170352D02*
X209941860Y-182170352D01*
%TO.C,SW3*%
X143554360Y-125020352D02*
X143554360Y-139020352D01*
X143554360Y-139020352D02*
X157554360Y-139020352D01*
X157554360Y-125020352D02*
X143554360Y-125020352D01*
X157554360Y-139020352D02*
X157554360Y-125020352D01*
%TO.C,SW57*%
X310241860Y-182170352D02*
X310241860Y-196170352D01*
X310241860Y-196170352D02*
X324241860Y-196170352D01*
X324241860Y-182170352D02*
X310241860Y-182170352D01*
X324241860Y-196170352D02*
X324241860Y-182170352D01*
%TO.C,SW25*%
X257854360Y-144070352D02*
X257854360Y-158070352D01*
X257854360Y-158070352D02*
X271854360Y-158070352D01*
X271854360Y-144070352D02*
X257854360Y-144070352D01*
X271854360Y-158070352D02*
X271854360Y-144070352D01*
%TO.C,SW30*%
X354316152Y-144540336D02*
X354316152Y-156840336D01*
X354316152Y-156840336D02*
X361066152Y-156840336D01*
X361066152Y-144540336D02*
X354316152Y-144540336D01*
X361066152Y-156840336D02*
X361066152Y-144540336D01*
X362629152Y-144070336D02*
X362629152Y-158070336D01*
X362629152Y-158070336D02*
X376629152Y-158070336D01*
X376629152Y-144070336D02*
X362629152Y-144070336D01*
X376629152Y-158070336D02*
X376629152Y-144070336D01*
X378192152Y-144540336D02*
X378192152Y-156840336D01*
X378192152Y-156840336D02*
X384942152Y-156840336D01*
X384942152Y-144540336D02*
X378192152Y-144540336D01*
X384942152Y-156840336D02*
X384942152Y-144540336D01*
%TO.C,SW23*%
X219754360Y-144070352D02*
X219754360Y-158070352D01*
X219754360Y-158070352D02*
X233754360Y-158070352D01*
X233754360Y-144070352D02*
X219754360Y-144070352D01*
X233754360Y-158070352D02*
X233754360Y-144070352D01*
%TO.C,SW79*%
X319766860Y-220270352D02*
X319766860Y-234270352D01*
X319766860Y-234270352D02*
X333766860Y-234270352D01*
X333766860Y-220270352D02*
X319766860Y-220270352D01*
X333766860Y-234270352D02*
X333766860Y-220270352D01*
%TO.C,SW29*%
X334054360Y-144070352D02*
X334054360Y-158070352D01*
X334054360Y-158070352D02*
X348054360Y-158070352D01*
X348054360Y-144070352D02*
X334054360Y-144070352D01*
X348054360Y-158070352D02*
X348054360Y-144070352D01*
%TO.C,SW17*%
X105454360Y-144070352D02*
X105454360Y-158070352D01*
X105454360Y-158070352D02*
X119454360Y-158070352D01*
X119454360Y-144070352D02*
X105454360Y-144070352D01*
X119454360Y-158070352D02*
X119454360Y-144070352D01*
%TO.C,SW13*%
X334054360Y-125020352D02*
X334054360Y-139020352D01*
X334054360Y-139020352D02*
X348054360Y-139020352D01*
X348054360Y-125020352D02*
X334054360Y-125020352D01*
X348054360Y-139020352D02*
X348054360Y-125020352D01*
%TO.C,SW24*%
X238804360Y-144070352D02*
X238804360Y-158070352D01*
X238804360Y-158070352D02*
X252804360Y-158070352D01*
X252804360Y-144070352D02*
X238804360Y-144070352D01*
X252804360Y-158070352D02*
X252804360Y-144070352D01*
%TO.C,SW12*%
X315004360Y-125020352D02*
X315004360Y-139020352D01*
X315004360Y-139020352D02*
X329004360Y-139020352D01*
X329004360Y-125020352D02*
X315004360Y-125020352D01*
X329004360Y-139020352D02*
X329004360Y-125020352D01*
%TO.C,SW28*%
X315004360Y-144070352D02*
X315004360Y-158070352D01*
X315004360Y-158070352D02*
X329004360Y-158070352D01*
X329004360Y-144070352D02*
X315004360Y-144070352D01*
X329004360Y-158070352D02*
X329004360Y-144070352D01*
%TO.C,SW65*%
X205466860Y-201220352D02*
X205466860Y-215220352D01*
X205466860Y-215220352D02*
X219466860Y-215220352D01*
X219466860Y-201220352D02*
X205466860Y-201220352D01*
X219466860Y-215220352D02*
X219466860Y-201220352D01*
%TO.C,SW61*%
X108985610Y-201675352D02*
X108985610Y-213975352D01*
X108985610Y-213975352D02*
X115735610Y-213975352D01*
X115735610Y-201675352D02*
X108985610Y-201675352D01*
X115735610Y-213975352D02*
X115735610Y-201675352D01*
X117340610Y-201220352D02*
X117340610Y-215220352D01*
X117340610Y-215220352D02*
X131340610Y-215220352D01*
X131340610Y-201220352D02*
X117340610Y-201220352D01*
X131340610Y-215220352D02*
X131340610Y-201220352D01*
X132861610Y-201675352D02*
X132861610Y-213975352D01*
X132861610Y-213975352D02*
X139611610Y-213975352D01*
X139611610Y-201675352D02*
X132861610Y-201675352D01*
X139611610Y-213975352D02*
X139611610Y-201675352D01*
%TO.C,SW21*%
X181654360Y-144070352D02*
X181654360Y-158070352D01*
X181654360Y-158070352D02*
X195654360Y-158070352D01*
X195654360Y-144070352D02*
X181654360Y-144070352D01*
X195654360Y-158070352D02*
X195654360Y-144070352D01*
%TO.C,SW69*%
X281666860Y-201220352D02*
X281666860Y-215220352D01*
X281666860Y-215220352D02*
X295666860Y-215220352D01*
X295666860Y-201220352D02*
X281666860Y-201220352D01*
X295666860Y-215220352D02*
X295666860Y-201220352D01*
%TO.C,SW76*%
X155460610Y-220270352D02*
X155460610Y-234270352D01*
X155460610Y-234270352D02*
X169460610Y-234270352D01*
X169460610Y-220270352D02*
X155460610Y-220270352D01*
X169460610Y-234270352D02*
X169460610Y-220270352D01*
%TO.C,SW63*%
X167366860Y-201220352D02*
X167366860Y-215220352D01*
X167366860Y-215220352D02*
X181366860Y-215220352D01*
X181366860Y-201220352D02*
X167366860Y-201220352D01*
X181366860Y-215220352D02*
X181366860Y-201220352D01*
%TO.C,SW67*%
X243566860Y-201220352D02*
X243566860Y-215220352D01*
X243566860Y-215220352D02*
X257566860Y-215220352D01*
X257566860Y-201220352D02*
X243566860Y-201220352D01*
X257566860Y-215220352D02*
X257566860Y-201220352D01*
%TO.C,SW34*%
X153079360Y-163120352D02*
X153079360Y-177120352D01*
X153079360Y-177120352D02*
X167079360Y-177120352D01*
X167079360Y-163120352D02*
X153079360Y-163120352D01*
X167079360Y-177120352D02*
X167079360Y-163120352D01*
%TO.C,SW16*%
X395966608Y-125020344D02*
X395966608Y-139020344D01*
X395966608Y-139020344D02*
X409966608Y-139020344D01*
X409966608Y-125020344D02*
X395966608Y-125020344D01*
X409966608Y-139020344D02*
X409966608Y-125020344D01*
%TO.C,SW19*%
X143554360Y-144070352D02*
X143554360Y-158070352D01*
X143554360Y-158070352D02*
X157554360Y-158070352D01*
X157554360Y-144070352D02*
X143554360Y-144070352D01*
X157554360Y-158070352D02*
X157554360Y-144070352D01*
%TO.C,SW47*%
X112598110Y-182170352D02*
X112598110Y-196170352D01*
X112598110Y-196170352D02*
X126598110Y-196170352D01*
X126598110Y-182170352D02*
X112598110Y-182170352D01*
X126598110Y-196170352D02*
X126598110Y-182170352D01*
%TO.C,SW55*%
X272141860Y-182170352D02*
X272141860Y-196170352D01*
X272141860Y-196170352D02*
X286141860Y-196170352D01*
X286141860Y-182170352D02*
X272141860Y-182170352D01*
X286141860Y-196170352D02*
X286141860Y-182170352D01*
%TO.C,SW48*%
X138791860Y-182170352D02*
X138791860Y-196170352D01*
X138791860Y-196170352D02*
X152791860Y-196170352D01*
X152791860Y-182170352D02*
X138791860Y-182170352D01*
X152791860Y-196170352D02*
X152791860Y-182170352D01*
%TO.C,SW40*%
X267379360Y-163120352D02*
X267379360Y-177120352D01*
X267379360Y-177120352D02*
X281379360Y-177120352D01*
X281379360Y-163120352D02*
X267379360Y-163120352D01*
X281379360Y-177120352D02*
X281379360Y-163120352D01*
%TO.C,SW64*%
X186416860Y-201220352D02*
X186416860Y-215220352D01*
X186416860Y-215220352D02*
X200416860Y-215220352D01*
X200416860Y-201220352D02*
X186416860Y-201220352D01*
X200416860Y-215220352D02*
X200416860Y-201220352D01*
%TO.C,SW49*%
X157841860Y-182170352D02*
X157841860Y-196170352D01*
X157841860Y-196170352D02*
X171841860Y-196170352D01*
X171841860Y-182170352D02*
X157841860Y-182170352D01*
X171841860Y-196170352D02*
X171841860Y-182170352D01*
%TO.C,SW72*%
X347110610Y-201675352D02*
X347110610Y-213975352D01*
X347110610Y-213975352D02*
X353860610Y-213975352D01*
X353860610Y-201675352D02*
X347110610Y-201675352D01*
X353860610Y-213975352D02*
X353860610Y-201675352D01*
X355485610Y-201220352D02*
X355485610Y-215220352D01*
X355485610Y-215220352D02*
X369485610Y-215220352D01*
X369485610Y-201220352D02*
X355485610Y-201220352D01*
X369485610Y-215220352D02*
X369485610Y-201220352D01*
X370986610Y-201675352D02*
X370986610Y-213975352D01*
X370986610Y-213975352D02*
X377736610Y-213975352D01*
X377736610Y-201675352D02*
X370986610Y-201675352D01*
X377736610Y-213975352D02*
X377736610Y-201675352D01*
%TO.C,SW11*%
X295954360Y-125020352D02*
X295954360Y-139020352D01*
X295954360Y-139020352D02*
X309954360Y-139020352D01*
X309954360Y-125020352D02*
X295954360Y-125020352D01*
X309954360Y-139020352D02*
X309954360Y-125020352D01*
%TD*%
M02*
