%TF.GenerationSoftware,KiCad,Pcbnew,9.0.7*%
%TF.CreationDate,2026-04-28T15:53:37+05:30*%
%TF.ProjectId,keyboard_kicad,6b657962-6f61-4726-945f-6b696361642e,rev?*%
%TF.SameCoordinates,Original*%
%TF.FileFunction,NonPlated,1,2,NPTH,Drill*%
%TF.FilePolarity,Positive*%
%FSLAX46Y46*%
G04 Gerber Fmt 4.6, Leading zero omitted, Abs format (unit mm)*
G04 Created by KiCad (PCBNEW 9.0.7) date 2026-04-28 15:53:37*
%MOMM*%
%LPD*%
G01*
G04 APERTURE LIST*
%TA.AperFunction,ComponentDrill*%
%ADD10C,1.750000*%
%TD*%
%TA.AperFunction,ComponentDrill*%
%ADD11C,2.000000*%
%TD*%
%TA.AperFunction,ComponentDrill*%
%ADD12C,3.048000*%
%TD*%
%TA.AperFunction,ComponentDrill*%
%ADD13C,3.987800*%
%TD*%
%TA.AperFunction,ComponentDrill*%
%ADD14C,4.000000*%
%TD*%
G04 APERTURE END LIST*
D10*
%TO.C,SW1*%
X107374360Y-132020352D03*
%TO.C,SW17*%
X107374360Y-151070352D03*
%TO.C,SW74*%
X109755610Y-227270352D03*
%TO.C,SW32*%
X112136860Y-170120352D03*
%TO.C,SW47*%
X114518110Y-189170352D03*
%TO.C,SW1*%
X117534360Y-132020352D03*
%TO.C,SW17*%
X117534360Y-151070352D03*
%TO.C,SW61*%
X119260610Y-208220352D03*
%TO.C,SW74*%
X119915610Y-227270352D03*
%TO.C,SW32*%
X122296860Y-170120352D03*
%TO.C,SW47*%
X124678110Y-189170352D03*
%TO.C,SW2*%
X126424360Y-132020352D03*
%TO.C,SW18*%
X126424360Y-151070352D03*
%TO.C,SW61*%
X129420610Y-208220352D03*
%TO.C,SW75*%
X133568110Y-227270352D03*
%TO.C,SW33*%
X135949360Y-170120352D03*
%TO.C,SW2*%
X136584360Y-132020352D03*
%TO.C,SW18*%
X136584360Y-151070352D03*
%TO.C,SW48*%
X140711860Y-189170352D03*
%TO.C,SW75*%
X143728110Y-227270352D03*
%TO.C,SW3*%
X145474360Y-132020352D03*
%TO.C,SW19*%
X145474360Y-151070352D03*
%TO.C,SW33*%
X146109360Y-170120352D03*
%TO.C,SW62*%
X150236860Y-208220352D03*
%TO.C,SW48*%
X150871860Y-189170352D03*
%TO.C,SW34*%
X154999360Y-170120352D03*
%TO.C,SW3*%
X155634360Y-132020352D03*
%TO.C,SW19*%
X155634360Y-151070352D03*
%TO.C,SW76*%
X157380610Y-227270352D03*
%TO.C,SW49*%
X159761860Y-189170352D03*
%TO.C,SW62*%
X160396860Y-208220352D03*
%TO.C,SW4*%
X164524360Y-132020352D03*
%TO.C,SW20*%
X164524360Y-151070352D03*
%TO.C,SW34*%
X165159360Y-170120352D03*
%TO.C,SW76*%
X167540610Y-227270352D03*
%TO.C,SW63*%
X169286860Y-208220352D03*
%TO.C,SW49*%
X169921860Y-189170352D03*
%TO.C,SW35*%
X174049360Y-170120352D03*
%TO.C,SW4*%
X174684360Y-132020352D03*
%TO.C,SW20*%
X174684360Y-151070352D03*
%TO.C,SW50*%
X178811860Y-189170352D03*
%TO.C,SW63*%
X179446860Y-208220352D03*
%TO.C,SW77*%
X181193110Y-227270352D03*
%TO.C,SW5*%
X183574360Y-132020352D03*
%TO.C,SW21*%
X183574360Y-151070352D03*
%TO.C,SW35*%
X184209360Y-170120352D03*
%TO.C,SW64*%
X188336860Y-208220352D03*
%TO.C,SW50*%
X188971860Y-189170352D03*
%TO.C,SW77*%
X191353110Y-227270352D03*
%TO.C,SW36*%
X193099360Y-170120352D03*
%TO.C,SW5*%
X193734360Y-132020352D03*
%TO.C,SW21*%
X193734360Y-151070352D03*
%TO.C,SW51*%
X197861860Y-189170352D03*
%TO.C,SW64*%
X198496860Y-208220352D03*
%TO.C,SW6*%
X202624360Y-132020352D03*
%TO.C,SW22*%
X202624360Y-151070352D03*
%TO.C,SW36*%
X203259360Y-170120352D03*
%TO.C,SW65*%
X207386860Y-208220352D03*
%TO.C,SW51*%
X208021860Y-189170352D03*
%TO.C,SW37*%
X212149360Y-170120352D03*
%TO.C,SW6*%
X212784360Y-132020352D03*
%TO.C,SW22*%
X212784360Y-151070352D03*
%TO.C,SW52*%
X216911860Y-189170352D03*
%TO.C,SW65*%
X217546860Y-208220352D03*
%TO.C,SW7*%
X221674360Y-132020352D03*
%TO.C,SW23*%
X221674360Y-151070352D03*
%TO.C,SW37*%
X222309360Y-170120352D03*
%TO.C,SW66*%
X226436860Y-208220352D03*
%TO.C,SW52*%
X227071860Y-189170352D03*
%TO.C,SW38*%
X231199360Y-170120352D03*
%TO.C,SW7*%
X231834360Y-132020352D03*
%TO.C,SW23*%
X231834360Y-151070352D03*
%TO.C,SW53*%
X235961860Y-189170352D03*
%TO.C,SW66*%
X236596860Y-208220352D03*
%TO.C,SW8*%
X240724360Y-132020352D03*
%TO.C,SW24*%
X240724360Y-151070352D03*
%TO.C,SW38*%
X241359360Y-170120352D03*
%TO.C,SW67*%
X245486860Y-208220352D03*
%TO.C,SW53*%
X246121860Y-189170352D03*
%TO.C,SW39*%
X250249360Y-170120352D03*
%TO.C,SW8*%
X250884360Y-132020352D03*
%TO.C,SW24*%
X250884360Y-151070352D03*
%TO.C,SW78*%
X252630530Y-227270272D03*
%TO.C,SW54*%
X255011860Y-189170352D03*
%TO.C,SW67*%
X255646860Y-208220352D03*
%TO.C,SW9*%
X259774360Y-132020352D03*
%TO.C,SW25*%
X259774360Y-151070352D03*
%TO.C,SW39*%
X260409360Y-170120352D03*
%TO.C,SW78*%
X262790530Y-227270272D03*
%TO.C,SW68*%
X264536860Y-208220352D03*
%TO.C,SW54*%
X265171860Y-189170352D03*
%TO.C,SW40*%
X269299360Y-170120352D03*
%TO.C,SW9*%
X269934360Y-132020352D03*
%TO.C,SW25*%
X269934360Y-151070352D03*
%TO.C,SW55*%
X274061860Y-189170352D03*
%TO.C,SW68*%
X274696860Y-208220352D03*
%TO.C,SW10*%
X278824360Y-132020352D03*
%TO.C,SW26*%
X278824360Y-151070352D03*
%TO.C,SW40*%
X279459360Y-170120352D03*
%TO.C,SW69*%
X283586860Y-208220352D03*
%TO.C,SW55*%
X284221860Y-189170352D03*
%TO.C,SW41*%
X288349360Y-170120352D03*
%TO.C,SW10*%
X288984360Y-132020352D03*
%TO.C,SW26*%
X288984360Y-151070352D03*
%TO.C,SW56*%
X293111860Y-189170352D03*
%TO.C,SW69*%
X293746860Y-208220352D03*
%TO.C,SW11*%
X297874360Y-132020352D03*
%TO.C,SW27*%
X297874360Y-151070352D03*
%TO.C,SW41*%
X298509360Y-170120352D03*
%TO.C,SW70*%
X302636860Y-208220352D03*
%TO.C,SW56*%
X303271860Y-189170352D03*
%TO.C,SW42*%
X307399360Y-170120352D03*
%TO.C,SW11*%
X308034360Y-132020352D03*
%TO.C,SW27*%
X308034360Y-151070352D03*
%TO.C,SW57*%
X312161860Y-189170352D03*
%TO.C,SW70*%
X312796860Y-208220352D03*
%TO.C,SW12*%
X316924360Y-132020352D03*
%TO.C,SW28*%
X316924360Y-151070352D03*
%TO.C,SW42*%
X317559360Y-170120352D03*
%TO.C,SW71*%
X321686860Y-208220352D03*
%TO.C,SW79*%
X321686860Y-227270352D03*
%TO.C,SW57*%
X322321860Y-189170352D03*
%TO.C,SW43*%
X326449360Y-170120352D03*
%TO.C,SW12*%
X327084360Y-132020352D03*
%TO.C,SW28*%
X327084360Y-151070352D03*
%TO.C,SW58*%
X331211860Y-189170352D03*
%TO.C,SW71*%
X331846860Y-208220352D03*
%TO.C,SW79*%
X331846860Y-227270352D03*
%TO.C,SW13*%
X335974360Y-132020352D03*
%TO.C,SW29*%
X335974360Y-151070352D03*
%TO.C,SW43*%
X336609360Y-170120352D03*
%TO.C,SW80*%
X340736860Y-227270352D03*
%TO.C,SW58*%
X341371860Y-189170352D03*
%TO.C,SW44*%
X345499360Y-170120352D03*
%TO.C,SW13*%
X346134360Y-132020352D03*
%TO.C,SW29*%
X346134360Y-151070352D03*
%TO.C,SW80*%
X350896860Y-227270352D03*
%TO.C,SW14*%
X355024360Y-132020352D03*
%TO.C,SW44*%
X355659360Y-170120352D03*
%TO.C,SW72*%
X357405610Y-208220352D03*
%TO.C,SW81*%
X359786860Y-227270352D03*
%TO.C,SW59*%
X362147906Y-189170304D03*
%TO.C,SW30*%
X364549152Y-151070336D03*
%TO.C,SW14*%
X365184360Y-132020352D03*
%TO.C,SW45*%
X366930610Y-170120352D03*
%TO.C,SW72*%
X367565610Y-208220352D03*
%TO.C,SW81*%
X369946860Y-227270352D03*
%TO.C,SW59*%
X372307906Y-189170304D03*
%TO.C,SW15*%
X374074360Y-132020352D03*
%TO.C,SW30*%
X374709152Y-151070336D03*
%TO.C,SW45*%
X377090610Y-170120352D03*
%TO.C,SW82*%
X378836860Y-227270352D03*
%TO.C,SW15*%
X384234360Y-132020352D03*
%TO.C,SW82*%
X388996860Y-227270352D03*
%TO.C,SW16*%
X397886608Y-132020344D03*
%TO.C,SW31*%
X397886608Y-151070328D03*
%TO.C,SW46*%
X397886608Y-170120312D03*
%TO.C,SW60*%
X397886608Y-189170296D03*
%TO.C,SW73*%
X397886608Y-208220280D03*
%TO.C,SW83*%
X397886860Y-227270352D03*
%TO.C,SW16*%
X408046608Y-132020344D03*
%TO.C,SW31*%
X408046608Y-151070328D03*
%TO.C,SW46*%
X408046608Y-170120312D03*
%TO.C,SW60*%
X408046608Y-189170296D03*
%TO.C,SW73*%
X408046608Y-208220280D03*
%TO.C,SW83*%
X408046860Y-227270352D03*
D11*
%TO.C,H3*%
X98166864Y-124578944D03*
%TO.C,H2*%
X99357488Y-237092912D03*
%TO.C,H1*%
X436601736Y-235541192D03*
%TO.C,H4*%
X441364232Y-123685976D03*
D12*
%TO.C,SW61*%
X112360610Y-200220352D03*
X136236610Y-200220352D03*
%TO.C,SW78*%
X208241780Y-219585272D03*
X308241780Y-219585272D03*
%TO.C,SW72*%
X350485610Y-200220352D03*
%TO.C,SW59*%
X355247906Y-181170304D03*
%TO.C,SW30*%
X357691152Y-143085336D03*
%TO.C,SW72*%
X374361610Y-200220352D03*
%TO.C,SW59*%
X379123906Y-181170304D03*
%TO.C,SW30*%
X381567152Y-143085336D03*
D13*
%TO.C,SW61*%
X112360610Y-215430352D03*
X136236610Y-215430352D03*
%TO.C,SW78*%
X208241780Y-234795272D03*
X308241780Y-234795272D03*
%TO.C,SW72*%
X350485610Y-215430352D03*
%TO.C,SW59*%
X355247906Y-196380304D03*
%TO.C,SW30*%
X357691152Y-158295336D03*
%TO.C,SW72*%
X374361610Y-215430352D03*
%TO.C,SW59*%
X379123906Y-196380304D03*
%TO.C,SW30*%
X381567152Y-158295336D03*
D14*
%TO.C,SW1*%
X112454360Y-132020352D03*
%TO.C,SW17*%
X112454360Y-151070352D03*
%TO.C,SW74*%
X114835610Y-227270352D03*
%TO.C,SW32*%
X117216860Y-170120352D03*
%TO.C,SW47*%
X119598110Y-189170352D03*
%TO.C,SW61*%
X124340610Y-208220352D03*
%TO.C,SW2*%
X131504360Y-132020352D03*
%TO.C,SW18*%
X131504360Y-151070352D03*
%TO.C,SW75*%
X138648110Y-227270352D03*
%TO.C,SW33*%
X141029360Y-170120352D03*
%TO.C,SW48*%
X145791860Y-189170352D03*
%TO.C,SW3*%
X150554360Y-132020352D03*
%TO.C,SW19*%
X150554360Y-151070352D03*
%TO.C,SW62*%
X155316860Y-208220352D03*
%TO.C,SW34*%
X160079360Y-170120352D03*
%TO.C,SW76*%
X162460610Y-227270352D03*
%TO.C,SW49*%
X164841860Y-189170352D03*
%TO.C,SW4*%
X169604360Y-132020352D03*
%TO.C,SW20*%
X169604360Y-151070352D03*
%TO.C,SW63*%
X174366860Y-208220352D03*
%TO.C,SW35*%
X179129360Y-170120352D03*
%TO.C,SW50*%
X183891860Y-189170352D03*
%TO.C,SW77*%
X186273110Y-227270352D03*
%TO.C,SW5*%
X188654360Y-132020352D03*
%TO.C,SW21*%
X188654360Y-151070352D03*
%TO.C,SW64*%
X193416860Y-208220352D03*
%TO.C,SW36*%
X198179360Y-170120352D03*
%TO.C,SW51*%
X202941860Y-189170352D03*
%TO.C,SW6*%
X207704360Y-132020352D03*
%TO.C,SW22*%
X207704360Y-151070352D03*
%TO.C,SW65*%
X212466860Y-208220352D03*
%TO.C,SW37*%
X217229360Y-170120352D03*
%TO.C,SW52*%
X221991860Y-189170352D03*
%TO.C,SW7*%
X226754360Y-132020352D03*
%TO.C,SW23*%
X226754360Y-151070352D03*
%TO.C,SW66*%
X231516860Y-208220352D03*
%TO.C,SW38*%
X236279360Y-170120352D03*
%TO.C,SW53*%
X241041860Y-189170352D03*
%TO.C,SW8*%
X245804360Y-132020352D03*
%TO.C,SW24*%
X245804360Y-151070352D03*
%TO.C,SW67*%
X250566860Y-208220352D03*
%TO.C,SW39*%
X255329360Y-170120352D03*
%TO.C,SW78*%
X257710530Y-227270272D03*
%TO.C,SW54*%
X260091860Y-189170352D03*
%TO.C,SW9*%
X264854360Y-132020352D03*
%TO.C,SW25*%
X264854360Y-151070352D03*
%TO.C,SW68*%
X269616860Y-208220352D03*
%TO.C,SW40*%
X274379360Y-170120352D03*
%TO.C,SW55*%
X279141860Y-189170352D03*
%TO.C,SW10*%
X283904360Y-132020352D03*
%TO.C,SW26*%
X283904360Y-151070352D03*
%TO.C,SW69*%
X288666860Y-208220352D03*
%TO.C,SW41*%
X293429360Y-170120352D03*
%TO.C,SW56*%
X298191860Y-189170352D03*
%TO.C,SW11*%
X302954360Y-132020352D03*
%TO.C,SW27*%
X302954360Y-151070352D03*
%TO.C,SW70*%
X307716860Y-208220352D03*
%TO.C,SW42*%
X312479360Y-170120352D03*
%TO.C,SW57*%
X317241860Y-189170352D03*
%TO.C,SW12*%
X322004360Y-132020352D03*
%TO.C,SW28*%
X322004360Y-151070352D03*
%TO.C,SW71*%
X326766860Y-208220352D03*
%TO.C,SW79*%
X326766860Y-227270352D03*
%TO.C,SW43*%
X331529360Y-170120352D03*
%TO.C,SW58*%
X336291860Y-189170352D03*
%TO.C,SW13*%
X341054360Y-132020352D03*
%TO.C,SW29*%
X341054360Y-151070352D03*
%TO.C,SW80*%
X345816860Y-227270352D03*
%TO.C,SW44*%
X350579360Y-170120352D03*
%TO.C,SW14*%
X360104360Y-132020352D03*
%TO.C,SW72*%
X362485610Y-208220352D03*
%TO.C,SW81*%
X364866860Y-227270352D03*
%TO.C,SW59*%
X367227906Y-189170304D03*
%TO.C,SW30*%
X369629152Y-151070336D03*
%TO.C,SW45*%
X372010610Y-170120352D03*
%TO.C,SW15*%
X379154360Y-132020352D03*
%TO.C,SW82*%
X383916860Y-227270352D03*
%TO.C,SW16*%
X402966608Y-132020344D03*
%TO.C,SW31*%
X402966608Y-151070328D03*
%TO.C,SW46*%
X402966608Y-170120312D03*
%TO.C,SW60*%
X402966608Y-189170296D03*
%TO.C,SW73*%
X402966608Y-208220280D03*
%TO.C,SW83*%
X402966860Y-227270352D03*
M02*
