%TF.GenerationSoftware,KiCad,Pcbnew,9.0.7*%
%TF.CreationDate,2026-04-30T08:26:06+05:30*%
%TF.ProjectId,keyboard_kicad,6b657962-6f61-4726-945f-6b696361642e,rev?*%
%TF.SameCoordinates,Original*%
%TF.FileFunction,Plated,1,2,PTH,Drill*%
%TF.FilePolarity,Positive*%
%FSLAX46Y46*%
G04 Gerber Fmt 4.6, Leading zero omitted, Abs format (unit mm)*
G04 Created by KiCad (PCBNEW 9.0.7) date 2026-04-30 08:26:06*
%MOMM*%
%LPD*%
G01*
G04 APERTURE LIST*
%TA.AperFunction,ViaDrill*%
%ADD10C,0.300000*%
%TD*%
%TA.AperFunction,ComponentDrill*%
%ADD11C,0.800000*%
%TD*%
%TA.AperFunction,ComponentDrill*%
%ADD12C,1.020000*%
%TD*%
%TA.AperFunction,ComponentDrill*%
%ADD13C,1.500000*%
%TD*%
G04 APERTURE END LIST*
D10*
X105784360Y-218610352D03*
X124321860Y-154105352D03*
X124434360Y-135060352D03*
X130544360Y-230315352D03*
X133334360Y-135060352D03*
X133401860Y-173165352D03*
X133521860Y-154105352D03*
X135306860Y-192215352D03*
X140069360Y-211265352D03*
X141021860Y-173165352D03*
X141974360Y-230315352D03*
X143334360Y-135060352D03*
X143371860Y-154105352D03*
X145784360Y-159310352D03*
X146736860Y-192215352D03*
X152434360Y-135060352D03*
X152571860Y-154105352D03*
X152896860Y-173155352D03*
X157659360Y-192205352D03*
X158684360Y-180210352D03*
X159119360Y-211265352D03*
X162096860Y-173155352D03*
X162421860Y-154105352D03*
X162434360Y-135060352D03*
X166859360Y-192205352D03*
X168304360Y-211260352D03*
X171534360Y-135060352D03*
X171621860Y-154105352D03*
X171946860Y-173155352D03*
X176709360Y-192205352D03*
X177684360Y-180710352D03*
X178169360Y-230315352D03*
X179074360Y-211270352D03*
X181146860Y-173155352D03*
X181471860Y-154105352D03*
X181534360Y-135060352D03*
X185909360Y-192205352D03*
X186234360Y-211255352D03*
X189599360Y-230315352D03*
X190434360Y-135060352D03*
X190671860Y-154105352D03*
X190996860Y-173155352D03*
X195434360Y-211255352D03*
X195759360Y-192205352D03*
X196684360Y-182110352D03*
X200196860Y-173155352D03*
X200521860Y-154105352D03*
X200534360Y-135060352D03*
X203453110Y-230315352D03*
X204959360Y-192205352D03*
X205284360Y-211255352D03*
X209721860Y-154105352D03*
X209734360Y-135060352D03*
X210046860Y-173155352D03*
X210884360Y-215910352D03*
X214484360Y-211255352D03*
X214809360Y-192205352D03*
X219246860Y-173155352D03*
X219571860Y-135055352D03*
X219571860Y-154105352D03*
X224009360Y-192205352D03*
X224334360Y-211255352D03*
X228771860Y-135055352D03*
X228771860Y-154105352D03*
X229096860Y-173155352D03*
X229684360Y-216410352D03*
X233534360Y-211255352D03*
X233859360Y-192205352D03*
X238296860Y-173155352D03*
X238621860Y-135055352D03*
X238621860Y-154105352D03*
X243059360Y-192205352D03*
X243384360Y-211255352D03*
X247821860Y-135055352D03*
X247821860Y-154105352D03*
X248146860Y-173155352D03*
X252584360Y-211255352D03*
X252909360Y-192205352D03*
X253884360Y-217110352D03*
X257346860Y-173155352D03*
X257671860Y-135055352D03*
X257671860Y-154105352D03*
X261953110Y-230315352D03*
X262109360Y-192205352D03*
X262434360Y-211255352D03*
X266871860Y-135055352D03*
X266871860Y-154105352D03*
X267196860Y-173155352D03*
X267784360Y-218610352D03*
X271634360Y-211255352D03*
X271959360Y-192205352D03*
X276396860Y-173155352D03*
X276721860Y-135055352D03*
X276721860Y-154105352D03*
X281159360Y-192205352D03*
X281484360Y-211255352D03*
X285921860Y-135055352D03*
X285921860Y-154105352D03*
X286246860Y-173155352D03*
X286584360Y-219110352D03*
X290684360Y-211255352D03*
X291009360Y-192205352D03*
X295446860Y-173155352D03*
X295771860Y-135055352D03*
X295771860Y-154105352D03*
X300209360Y-192205352D03*
X300534360Y-211255352D03*
X304971860Y-135055352D03*
X304971860Y-154105352D03*
X305296860Y-173155352D03*
X309734360Y-211255352D03*
X310059360Y-192205352D03*
X314496860Y-173155352D03*
X314821860Y-135055352D03*
X314821860Y-154105352D03*
X317884360Y-219910352D03*
X319259360Y-192205352D03*
X319584360Y-211255352D03*
X319653110Y-230315352D03*
X324021860Y-135055352D03*
X324021860Y-154105352D03*
X324346860Y-173155352D03*
X324484360Y-232565352D03*
X328784360Y-211255352D03*
X329109360Y-192205352D03*
X329253110Y-230315352D03*
X333546860Y-173155352D03*
X333871860Y-135055352D03*
X333871860Y-154105352D03*
X338309360Y-192205352D03*
X338653110Y-230315352D03*
X339084360Y-211265352D03*
X343071860Y-135055352D03*
X343071860Y-154105352D03*
X343084360Y-232265352D03*
X343396860Y-173155352D03*
X347753110Y-230315352D03*
X349619360Y-192215352D03*
X352596860Y-173155352D03*
X352921860Y-135055352D03*
X357639726Y-230305351D03*
X362001860Y-154115352D03*
X362121860Y-135055352D03*
X362584360Y-231965352D03*
X363906860Y-173165352D03*
X364384360Y-211265352D03*
X366839726Y-230305351D03*
X368669360Y-192215352D03*
X371971860Y-135055352D03*
X373431860Y-154115352D03*
X375284360Y-211265352D03*
X375336860Y-173165352D03*
X376734360Y-230305352D03*
X381171860Y-135055352D03*
X381884360Y-231465352D03*
X385934360Y-230305352D03*
X386766860Y-173165352D03*
X387719360Y-192215352D03*
X388671860Y-154115352D03*
X392481860Y-135065352D03*
X395784360Y-230305352D03*
X400684360Y-144210352D03*
X400784360Y-231165352D03*
X400984360Y-141610352D03*
X403911860Y-135065352D03*
X403911860Y-154115352D03*
X404864360Y-211265352D03*
X404984360Y-230305352D03*
X405816860Y-173165352D03*
X406769360Y-192215352D03*
X410284360Y-146710352D03*
X413184360Y-139210352D03*
X413484360Y-178710352D03*
X413784360Y-124710352D03*
X413996509Y-179324931D03*
X415384360Y-218110352D03*
X416984360Y-217710352D03*
X417439360Y-216903879D03*
X418039360Y-213510352D03*
X418639360Y-210410352D03*
X419284360Y-216610352D03*
X420984360Y-212410352D03*
X421284360Y-132510352D03*
X421484360Y-190810352D03*
X421784360Y-135710352D03*
X421784360Y-208310352D03*
X422584360Y-218610352D03*
X422584360Y-221610352D03*
X431284360Y-221465352D03*
X431950002Y-221909113D03*
X432584360Y-222465352D03*
X433198939Y-222977501D03*
X433884360Y-223665352D03*
X435784360Y-219465352D03*
D11*
%TO.C,D10*%
X121971860Y-131255352D03*
X121971860Y-135065352D03*
%TO.C,D26*%
X121971860Y-150305352D03*
X121971860Y-154115352D03*
%TO.C,D75*%
X124353110Y-226505352D03*
X124353110Y-230315352D03*
%TO.C,D43*%
X126734360Y-169355352D03*
X126734360Y-173165352D03*
%TO.C,D42*%
X129115610Y-188405352D03*
X129115610Y-192215352D03*
%TO.C,D74*%
X133878110Y-207455352D03*
X133878110Y-211265352D03*
%TO.C,D11*%
X141021860Y-131255352D03*
X141021860Y-135065352D03*
%TO.C,D27*%
X141021860Y-150305352D03*
X141021860Y-154115352D03*
%TO.C,D77*%
X148165610Y-226505352D03*
X148165610Y-230315352D03*
%TO.C,D45*%
X150546860Y-169355352D03*
X150546860Y-173165352D03*
%TO.C,D44*%
X155309360Y-188405352D03*
X155309360Y-192215352D03*
%TO.C,D12*%
X160071860Y-131255352D03*
X160071860Y-135065352D03*
%TO.C,D28*%
X160071860Y-150305352D03*
X160071860Y-154115352D03*
%TO.C,D76*%
X164834360Y-207455352D03*
X164834360Y-211265352D03*
%TO.C,D47*%
X169596860Y-169355352D03*
X169596860Y-173165352D03*
%TO.C,D79*%
X171978110Y-226505352D03*
X171978110Y-230315352D03*
%TO.C,D46*%
X174359360Y-188405352D03*
X174359360Y-192215352D03*
%TO.C,D13*%
X179121860Y-131255352D03*
X179121860Y-135065352D03*
%TO.C,D29*%
X179121860Y-150305352D03*
X179121860Y-154115352D03*
%TO.C,D78*%
X183884360Y-207455352D03*
X183884360Y-211265352D03*
%TO.C,D49*%
X188646860Y-169355352D03*
X188646860Y-173165352D03*
%TO.C,D48*%
X193409360Y-188405352D03*
X193409360Y-192215352D03*
%TO.C,D81*%
X195790610Y-226505352D03*
X195790610Y-230315352D03*
%TO.C,D14*%
X198171860Y-131255352D03*
X198171860Y-135065352D03*
%TO.C,D30*%
X198171860Y-150305352D03*
X198171860Y-154115352D03*
%TO.C,D80*%
X202934360Y-207455352D03*
X202934360Y-211265352D03*
%TO.C,D51*%
X207696860Y-169355352D03*
X207696860Y-173165352D03*
%TO.C,D50*%
X212459360Y-188405352D03*
X212459360Y-192215352D03*
%TO.C,D15*%
X217221860Y-131255352D03*
X217221860Y-135065352D03*
%TO.C,D31*%
X217221860Y-150305352D03*
X217221860Y-154115352D03*
%TO.C,D82*%
X221984360Y-207455352D03*
X221984360Y-211265352D03*
%TO.C,D53*%
X226746860Y-169355352D03*
X226746860Y-173165352D03*
%TO.C,D52*%
X231509360Y-188405352D03*
X231509360Y-192215352D03*
%TO.C,D16*%
X236271860Y-131255352D03*
X236271860Y-135065352D03*
%TO.C,D32*%
X236271860Y-150305352D03*
X236271860Y-154115352D03*
%TO.C,D84*%
X241034360Y-207455352D03*
X241034360Y-211265352D03*
%TO.C,D55*%
X245796860Y-169355352D03*
X245796860Y-173165352D03*
%TO.C,D54*%
X250559360Y-188405352D03*
X250559360Y-192215352D03*
%TO.C,D17*%
X255321860Y-131255352D03*
X255321860Y-135065352D03*
%TO.C,D33*%
X255321860Y-150305352D03*
X255321860Y-154115352D03*
%TO.C,D86*%
X260084360Y-207455352D03*
X260084360Y-211265352D03*
%TO.C,D57*%
X264846860Y-169355352D03*
X264846860Y-173165352D03*
%TO.C,D85*%
X267228110Y-226505352D03*
X267228110Y-230315352D03*
%TO.C,D56*%
X269609360Y-188405352D03*
X269609360Y-192215352D03*
%TO.C,D18*%
X274371860Y-131255352D03*
X274371860Y-135065352D03*
%TO.C,D34*%
X274371860Y-150305352D03*
X274371860Y-154115352D03*
%TO.C,D88*%
X279134360Y-207455352D03*
X279134360Y-211265352D03*
%TO.C,D59*%
X283896860Y-169355352D03*
X283896860Y-173165352D03*
%TO.C,D58*%
X288659360Y-188405352D03*
X288659360Y-192215352D03*
%TO.C,D19*%
X293421860Y-131255352D03*
X293421860Y-135065352D03*
%TO.C,D35*%
X293421860Y-150305352D03*
X293421860Y-154115352D03*
%TO.C,D90*%
X298184360Y-207455352D03*
X298184360Y-211265352D03*
%TO.C,D61*%
X302946860Y-169355352D03*
X302946860Y-173165352D03*
%TO.C,D60*%
X307709360Y-188405352D03*
X307709360Y-192215352D03*
%TO.C,D20*%
X312471860Y-131255352D03*
X312471860Y-135065352D03*
%TO.C,D36*%
X312471860Y-150305352D03*
X312471860Y-154115352D03*
%TO.C,D92*%
X317234360Y-207455352D03*
X317234360Y-211265352D03*
%TO.C,D63*%
X321996860Y-169355352D03*
X321996860Y-173165352D03*
%TO.C,D62*%
X326759360Y-188405352D03*
X326759360Y-192215352D03*
%TO.C,D21*%
X331521860Y-131255352D03*
X331521860Y-135065352D03*
%TO.C,D37*%
X331521860Y-150305352D03*
X331521860Y-154115352D03*
%TO.C,D94*%
X336284360Y-207455352D03*
X336284360Y-211265352D03*
%TO.C,D91*%
X336284360Y-226505352D03*
X336284360Y-230315352D03*
%TO.C,D65*%
X341046860Y-169355352D03*
X341046860Y-173165352D03*
%TO.C,D64*%
X345809360Y-188405352D03*
X345809360Y-192215352D03*
%TO.C,D22*%
X350571860Y-131255352D03*
X350571860Y-135065352D03*
%TO.C,D38*%
X350571860Y-150305352D03*
X350571860Y-154115352D03*
%TO.C,D93*%
X355334360Y-226505352D03*
X355334360Y-230315352D03*
%TO.C,D67*%
X360096860Y-169355352D03*
X360096860Y-173165352D03*
%TO.C,D23*%
X369621860Y-131255352D03*
X369621860Y-135065352D03*
%TO.C,D96*%
X372003110Y-207455352D03*
X372003110Y-211265352D03*
%TO.C,D95*%
X374384360Y-226505352D03*
X374384360Y-230315352D03*
%TO.C,D66*%
X376765610Y-188405352D03*
X376765610Y-192215352D03*
%TO.C,D39*%
X379146860Y-150305352D03*
X379146860Y-154115352D03*
%TO.C,D69*%
X381528110Y-169355352D03*
X381528110Y-173165352D03*
%TO.C,D24*%
X388671860Y-131255352D03*
X388671860Y-135065352D03*
%TO.C,D97*%
X393434360Y-226505352D03*
X393434360Y-230315352D03*
%TO.C,D25*%
X412484360Y-131255352D03*
X412484360Y-135065352D03*
%TO.C,D41*%
X412484360Y-150305352D03*
X412484360Y-154115352D03*
%TO.C,D73*%
X412484360Y-169355352D03*
X412484360Y-173165352D03*
%TO.C,D72*%
X412484360Y-188405352D03*
X412484360Y-192215352D03*
%TO.C,D104*%
X412484360Y-207455352D03*
X412484360Y-211265352D03*
%TO.C,D105*%
X412484360Y-226505352D03*
X412484360Y-230315352D03*
D12*
%TO.C,U1*%
X418039360Y-121365352D03*
X418039360Y-123905352D03*
X418039360Y-126445352D03*
X418039360Y-128985352D03*
X418039360Y-131525352D03*
X418039360Y-134065352D03*
X418039360Y-136605352D03*
X418039360Y-139145352D03*
X418039360Y-141685352D03*
X418039360Y-144225352D03*
X418039360Y-146765352D03*
X418039360Y-149305352D03*
X418039360Y-151845352D03*
X418039360Y-154385352D03*
X418039360Y-156925352D03*
X418039360Y-159465352D03*
X418039360Y-162005352D03*
X418039360Y-164545352D03*
X418039360Y-167085352D03*
X418039360Y-169625352D03*
X424389360Y-169395352D03*
X426929360Y-169395352D03*
X429469360Y-169395352D03*
X435819360Y-121365352D03*
X435819360Y-123905352D03*
X435819360Y-126445352D03*
X435819360Y-128985352D03*
X435819360Y-131525352D03*
X435819360Y-134065352D03*
X435819360Y-136605352D03*
X435819360Y-139145352D03*
X435819360Y-141685352D03*
X435819360Y-144225352D03*
X435819360Y-146765352D03*
X435819360Y-149305352D03*
X435819360Y-151845352D03*
X435819360Y-154385352D03*
X435819360Y-156925352D03*
X435819360Y-159465352D03*
X435819360Y-162005352D03*
X435819360Y-164545352D03*
X435819360Y-167085352D03*
X435819360Y-169625352D03*
D13*
%TO.C,SW1*%
X108636860Y-129495352D03*
%TO.C,SW17*%
X108636860Y-148545352D03*
%TO.C,SW74*%
X111018110Y-224745352D03*
%TO.C,SW32*%
X113399360Y-167595352D03*
%TO.C,SW1*%
X114986860Y-126955352D03*
%TO.C,SW17*%
X114986860Y-146005352D03*
%TO.C,SW47*%
X115780610Y-186645352D03*
%TO.C,SW74*%
X117368110Y-222205352D03*
%TO.C,SW32*%
X119749360Y-165055352D03*
%TO.C,SW61*%
X120523110Y-205695352D03*
%TO.C,SW47*%
X122130610Y-184105352D03*
%TO.C,SW61*%
X126873110Y-203155352D03*
%TO.C,SW2*%
X127686860Y-129495352D03*
%TO.C,SW18*%
X127686860Y-148545352D03*
%TO.C,SW2*%
X134036860Y-126955352D03*
%TO.C,SW18*%
X134036860Y-146005352D03*
%TO.C,SW75*%
X134830610Y-224745352D03*
%TO.C,SW33*%
X137211860Y-167595352D03*
%TO.C,SW75*%
X141180610Y-222205352D03*
%TO.C,SW48*%
X141974360Y-186645352D03*
%TO.C,SW33*%
X143561860Y-165055352D03*
%TO.C,SW3*%
X146736860Y-129495352D03*
%TO.C,SW19*%
X146736860Y-148545352D03*
%TO.C,SW48*%
X148324360Y-184105352D03*
%TO.C,SW62*%
X151499360Y-205695352D03*
%TO.C,SW3*%
X153086860Y-126955352D03*
%TO.C,SW19*%
X153086860Y-146005352D03*
%TO.C,SW34*%
X156261860Y-167595352D03*
%TO.C,SW62*%
X157849360Y-203155352D03*
%TO.C,SW76*%
X158643110Y-224745352D03*
%TO.C,SW49*%
X161024360Y-186645352D03*
%TO.C,SW34*%
X162611860Y-165055352D03*
%TO.C,SW76*%
X164993110Y-222205352D03*
%TO.C,SW4*%
X165786860Y-129495352D03*
%TO.C,SW20*%
X165786860Y-148545352D03*
%TO.C,SW49*%
X167374360Y-184105352D03*
%TO.C,SW63*%
X170549360Y-205695352D03*
%TO.C,SW4*%
X172136860Y-126955352D03*
%TO.C,SW20*%
X172136860Y-146005352D03*
%TO.C,SW35*%
X175311860Y-167595352D03*
%TO.C,SW63*%
X176899360Y-203155352D03*
%TO.C,SW50*%
X180074360Y-186645352D03*
%TO.C,SW35*%
X181661860Y-165055352D03*
%TO.C,SW77*%
X182455610Y-224745352D03*
%TO.C,SW5*%
X184836860Y-129495352D03*
%TO.C,SW21*%
X184836860Y-148545352D03*
%TO.C,SW50*%
X186424360Y-184105352D03*
%TO.C,SW77*%
X188805610Y-222205352D03*
%TO.C,SW64*%
X189599360Y-205695352D03*
%TO.C,SW5*%
X191186860Y-126955352D03*
%TO.C,SW21*%
X191186860Y-146005352D03*
%TO.C,SW36*%
X194361860Y-167595352D03*
%TO.C,SW64*%
X195949360Y-203155352D03*
%TO.C,SW51*%
X199124360Y-186645352D03*
%TO.C,SW36*%
X200711860Y-165055352D03*
%TO.C,SW6*%
X203886860Y-129495352D03*
%TO.C,SW22*%
X203886860Y-148545352D03*
%TO.C,SW51*%
X205474360Y-184105352D03*
%TO.C,SW65*%
X208649360Y-205695352D03*
%TO.C,SW6*%
X210236860Y-126955352D03*
%TO.C,SW22*%
X210236860Y-146005352D03*
%TO.C,SW37*%
X213411860Y-167595352D03*
%TO.C,SW65*%
X214999360Y-203155352D03*
%TO.C,SW52*%
X218174360Y-186645352D03*
%TO.C,SW37*%
X219761860Y-165055352D03*
%TO.C,SW7*%
X222936860Y-129495352D03*
%TO.C,SW23*%
X222936860Y-148545352D03*
%TO.C,SW52*%
X224524360Y-184105352D03*
%TO.C,SW66*%
X227699360Y-205695352D03*
%TO.C,SW7*%
X229286860Y-126955352D03*
%TO.C,SW23*%
X229286860Y-146005352D03*
%TO.C,SW38*%
X232461860Y-167595352D03*
%TO.C,SW66*%
X234049360Y-203155352D03*
%TO.C,SW53*%
X237224360Y-186645352D03*
%TO.C,SW38*%
X238811860Y-165055352D03*
%TO.C,SW8*%
X241986860Y-129495352D03*
%TO.C,SW24*%
X241986860Y-148545352D03*
%TO.C,SW53*%
X243574360Y-184105352D03*
%TO.C,SW67*%
X246749360Y-205695352D03*
%TO.C,SW8*%
X248336860Y-126955352D03*
%TO.C,SW24*%
X248336860Y-146005352D03*
%TO.C,SW39*%
X251511860Y-167595352D03*
%TO.C,SW67*%
X253099360Y-203155352D03*
%TO.C,SW78*%
X253893010Y-224745352D03*
%TO.C,SW54*%
X256274360Y-186645352D03*
%TO.C,SW39*%
X257861860Y-165055352D03*
%TO.C,SW78*%
X260243010Y-222205352D03*
%TO.C,SW9*%
X261036860Y-129495352D03*
%TO.C,SW25*%
X261036860Y-148545352D03*
%TO.C,SW54*%
X262624360Y-184105352D03*
%TO.C,SW68*%
X265799360Y-205695352D03*
%TO.C,SW9*%
X267386860Y-126955352D03*
%TO.C,SW25*%
X267386860Y-146005352D03*
%TO.C,SW40*%
X270561860Y-167595352D03*
%TO.C,SW68*%
X272149360Y-203155352D03*
%TO.C,SW55*%
X275324360Y-186645352D03*
%TO.C,SW40*%
X276911860Y-165055352D03*
%TO.C,SW10*%
X280086860Y-129495352D03*
%TO.C,SW26*%
X280086860Y-148545352D03*
%TO.C,SW55*%
X281674360Y-184105352D03*
%TO.C,SW69*%
X284849360Y-205695352D03*
%TO.C,SW10*%
X286436860Y-126955352D03*
%TO.C,SW26*%
X286436860Y-146005352D03*
%TO.C,SW41*%
X289611860Y-167595352D03*
%TO.C,SW69*%
X291199360Y-203155352D03*
%TO.C,SW56*%
X294374360Y-186645352D03*
%TO.C,SW41*%
X295961860Y-165055352D03*
%TO.C,SW11*%
X299136860Y-129495352D03*
%TO.C,SW27*%
X299136860Y-148545352D03*
%TO.C,SW56*%
X300724360Y-184105352D03*
%TO.C,SW70*%
X303899360Y-205695352D03*
%TO.C,SW11*%
X305486860Y-126955352D03*
%TO.C,SW27*%
X305486860Y-146005352D03*
%TO.C,SW42*%
X308661860Y-167595352D03*
%TO.C,SW70*%
X310249360Y-203155352D03*
%TO.C,SW57*%
X313424360Y-186645352D03*
%TO.C,SW42*%
X315011860Y-165055352D03*
%TO.C,SW12*%
X318186860Y-129495352D03*
%TO.C,SW28*%
X318186860Y-148545352D03*
%TO.C,SW57*%
X319774360Y-184105352D03*
%TO.C,SW71*%
X322949360Y-205695352D03*
%TO.C,SW79*%
X322949360Y-224745352D03*
%TO.C,SW12*%
X324536860Y-126955352D03*
%TO.C,SW28*%
X324536860Y-146005352D03*
%TO.C,SW43*%
X327711860Y-167595352D03*
%TO.C,SW71*%
X329299360Y-203155352D03*
%TO.C,SW79*%
X329299360Y-222205352D03*
%TO.C,SW58*%
X332474360Y-186645352D03*
%TO.C,SW43*%
X334061860Y-165055352D03*
%TO.C,SW13*%
X337236860Y-129495352D03*
%TO.C,SW29*%
X337236860Y-148545352D03*
%TO.C,SW58*%
X338824360Y-184105352D03*
%TO.C,SW80*%
X341999360Y-224745352D03*
%TO.C,SW13*%
X343586860Y-126955352D03*
%TO.C,SW29*%
X343586860Y-146005352D03*
%TO.C,SW44*%
X346761860Y-167595352D03*
%TO.C,SW80*%
X348349360Y-222205352D03*
%TO.C,SW44*%
X353111860Y-165055352D03*
%TO.C,SW14*%
X356286860Y-129495352D03*
%TO.C,SW72*%
X358668110Y-205695352D03*
%TO.C,SW81*%
X361049360Y-224745352D03*
%TO.C,SW14*%
X362636860Y-126955352D03*
%TO.C,SW59*%
X363410610Y-186645352D03*
%TO.C,SW72*%
X365018110Y-203155352D03*
%TO.C,SW30*%
X365811860Y-148545352D03*
%TO.C,SW81*%
X367399360Y-222205352D03*
%TO.C,SW45*%
X368193110Y-167595352D03*
%TO.C,SW59*%
X369760610Y-184105352D03*
%TO.C,SW30*%
X372161860Y-146005352D03*
%TO.C,SW45*%
X374543110Y-165055352D03*
%TO.C,SW15*%
X375336860Y-129495352D03*
%TO.C,SW82*%
X380099360Y-224745352D03*
%TO.C,SW15*%
X381686860Y-126955352D03*
%TO.C,SW82*%
X386449360Y-222205352D03*
%TO.C,SW16*%
X399149360Y-129495352D03*
%TO.C,SW31*%
X399149360Y-148545352D03*
%TO.C,SW46*%
X399149360Y-167595352D03*
%TO.C,SW60*%
X399149360Y-186645352D03*
%TO.C,SW73*%
X399149360Y-205695352D03*
%TO.C,SW83*%
X399149360Y-224745352D03*
%TO.C,SW16*%
X405499360Y-126955352D03*
%TO.C,SW31*%
X405499360Y-146005352D03*
%TO.C,SW46*%
X405499360Y-165055352D03*
%TO.C,SW60*%
X405499360Y-184105352D03*
%TO.C,SW73*%
X405499360Y-203155352D03*
%TO.C,SW83*%
X405499360Y-222205352D03*
M02*
