%TF.GenerationSoftware,KiCad,Pcbnew,9.0.7*%
%TF.CreationDate,2026-04-30T08:26:02+05:30*%
%TF.ProjectId,keyboard_kicad,6b657962-6f61-4726-945f-6b696361642e,rev?*%
%TF.SameCoordinates,Original*%
%TF.FileFunction,OtherDrawing,Comment*%
%FSLAX46Y46*%
G04 Gerber Fmt 4.6, Leading zero omitted, Abs format (unit mm)*
G04 Created by KiCad (PCBNEW 9.0.7) date 2026-04-30 08:26:02*
%MOMM*%
%LPD*%
G01*
G04 APERTURE LIST*
%ADD10C,0.100000*%
G04 APERTURE END LIST*
D10*
%TO.C,SW83*%
X393434360Y-217760352D02*
X393434360Y-236810352D01*
X393434360Y-236810352D02*
X412484360Y-236810352D01*
X412484360Y-217760352D02*
X393434360Y-217760352D01*
X412484360Y-236810352D02*
X412484360Y-217760352D01*
%TO.C,SW71*%
X317234360Y-198710352D02*
X317234360Y-217760352D01*
X317234360Y-217760352D02*
X336284360Y-217760352D01*
X336284360Y-198710352D02*
X317234360Y-198710352D01*
X336284360Y-217760352D02*
X336284360Y-198710352D01*
%TO.C,SW4*%
X160071860Y-122510352D02*
X160071860Y-141560352D01*
X160071860Y-141560352D02*
X179121860Y-141560352D01*
X179121860Y-122510352D02*
X160071860Y-122510352D01*
X179121860Y-141560352D02*
X179121860Y-122510352D01*
%TO.C,SW54*%
X250559360Y-179660352D02*
X250559360Y-198710352D01*
X250559360Y-198710352D02*
X269609360Y-198710352D01*
X269609360Y-179660352D02*
X250559360Y-179660352D01*
X269609360Y-198710352D02*
X269609360Y-179660352D01*
%TO.C,SW41*%
X283896860Y-160610352D02*
X283896860Y-179660352D01*
X283896860Y-179660352D02*
X302946860Y-179660352D01*
X302946860Y-160610352D02*
X283896860Y-160610352D01*
X302946860Y-179660352D02*
X302946860Y-160610352D01*
%TO.C,SW75*%
X126734360Y-217760352D02*
X126734360Y-236810352D01*
X126734360Y-236810352D02*
X150546860Y-236810352D01*
X150546860Y-217760352D02*
X126734360Y-217760352D01*
X150546860Y-236810352D02*
X150546860Y-217760352D01*
%TO.C,SW18*%
X121971860Y-141560352D02*
X121971860Y-160610352D01*
X121971860Y-160610352D02*
X141021860Y-160610352D01*
X141021860Y-141560352D02*
X121971860Y-141560352D01*
X141021860Y-160610352D02*
X141021860Y-141560352D01*
%TO.C,SW38*%
X226746860Y-160610352D02*
X226746860Y-179660352D01*
X226746860Y-179660352D02*
X245796860Y-179660352D01*
X245796860Y-160610352D02*
X226746860Y-160610352D01*
X245796860Y-179660352D02*
X245796860Y-160610352D01*
%TO.C,SW44*%
X341046860Y-160610352D02*
X341046860Y-179660352D01*
X341046860Y-179660352D02*
X360096860Y-179660352D01*
X360096860Y-160610352D02*
X341046860Y-160610352D01*
X360096860Y-179660352D02*
X360096860Y-160610352D01*
%TO.C,SW82*%
X374384360Y-217760352D02*
X374384360Y-236810352D01*
X374384360Y-236810352D02*
X393434360Y-236810352D01*
X393434360Y-217760352D02*
X374384360Y-217760352D01*
X393434360Y-236810352D02*
X393434360Y-217760352D01*
%TO.C,SW46*%
X393434360Y-160610352D02*
X393434360Y-179660352D01*
X393434360Y-179660352D02*
X412484360Y-179660352D01*
X412484360Y-160610352D02*
X393434360Y-160610352D01*
X412484360Y-179660352D02*
X412484360Y-160610352D01*
%TO.C,SW9*%
X255321860Y-122510352D02*
X255321860Y-141560352D01*
X255321860Y-141560352D02*
X274371860Y-141560352D01*
X274371860Y-122510352D02*
X255321860Y-122510352D01*
X274371860Y-141560352D02*
X274371860Y-122510352D01*
%TO.C,SW15*%
X369621860Y-122510352D02*
X369621860Y-141560352D01*
X369621860Y-141560352D02*
X388671860Y-141560352D01*
X388671860Y-122510352D02*
X369621860Y-122510352D01*
X388671860Y-141560352D02*
X388671860Y-122510352D01*
%TO.C,SW81*%
X355334360Y-217760352D02*
X355334360Y-236810352D01*
X355334360Y-236810352D02*
X374384360Y-236810352D01*
X374384360Y-217760352D02*
X355334360Y-217760352D01*
X374384360Y-236810352D02*
X374384360Y-217760352D01*
%TO.C,SW58*%
X326759360Y-179660352D02*
X326759360Y-198710352D01*
X326759360Y-198710352D02*
X345809360Y-198710352D01*
X345809360Y-179660352D02*
X326759360Y-179660352D01*
X345809360Y-198710352D02*
X345809360Y-179660352D01*
%TO.C,SW43*%
X321996860Y-160610352D02*
X321996860Y-179660352D01*
X321996860Y-179660352D02*
X341046860Y-179660352D01*
X341046860Y-160610352D02*
X321996860Y-160610352D01*
X341046860Y-179660352D02*
X341046860Y-160610352D01*
%TO.C,SW6*%
X198171860Y-122510352D02*
X198171860Y-141560352D01*
X198171860Y-141560352D02*
X217221860Y-141560352D01*
X217221860Y-122510352D02*
X198171860Y-122510352D01*
X217221860Y-141560352D02*
X217221860Y-122510352D01*
%TO.C,SW22*%
X198171860Y-141560352D02*
X198171860Y-160610352D01*
X198171860Y-160610352D02*
X217221860Y-160610352D01*
X217221860Y-141560352D02*
X198171860Y-141560352D01*
X217221860Y-160610352D02*
X217221860Y-141560352D01*
%TO.C,SW60*%
X393434360Y-179660352D02*
X393434360Y-198710352D01*
X393434360Y-198710352D02*
X412484360Y-198710352D01*
X412484360Y-179660352D02*
X393434360Y-179660352D01*
X412484360Y-198710352D02*
X412484360Y-179660352D01*
%TO.C,SW37*%
X207696860Y-160610352D02*
X207696860Y-179660352D01*
X207696860Y-179660352D02*
X226746860Y-179660352D01*
X226746860Y-160610352D02*
X207696860Y-160610352D01*
X226746860Y-179660352D02*
X226746860Y-160610352D01*
%TO.C,SW52*%
X212459360Y-179660352D02*
X212459360Y-198710352D01*
X212459360Y-198710352D02*
X231509360Y-198710352D01*
X231509360Y-179660352D02*
X212459360Y-179660352D01*
X231509360Y-198710352D02*
X231509360Y-179660352D01*
%TO.C,SW36*%
X188646860Y-160610352D02*
X188646860Y-179660352D01*
X188646860Y-179660352D02*
X207696860Y-179660352D01*
X207696860Y-160610352D02*
X188646860Y-160610352D01*
X207696860Y-179660352D02*
X207696860Y-160610352D01*
%TO.C,SW50*%
X174359360Y-179660352D02*
X174359360Y-198710352D01*
X174359360Y-198710352D02*
X193409360Y-198710352D01*
X193409360Y-179660352D02*
X174359360Y-179660352D01*
X193409360Y-198710352D02*
X193409360Y-179660352D01*
%TO.C,SW33*%
X131496860Y-160610352D02*
X131496860Y-179660352D01*
X131496860Y-179660352D02*
X150546860Y-179660352D01*
X150546860Y-160610352D02*
X131496860Y-160610352D01*
X150546860Y-179660352D02*
X150546860Y-160610352D01*
%TO.C,SW45*%
X357715610Y-160610352D02*
X357715610Y-179660352D01*
X357715610Y-179660352D02*
X386290610Y-179660352D01*
X386290610Y-160610352D02*
X357715610Y-160610352D01*
X386290610Y-179660352D02*
X386290610Y-160610352D01*
%TO.C,SW59*%
X345809360Y-179660352D02*
X345809360Y-198710352D01*
X345809360Y-198710352D02*
X388671860Y-198710352D01*
X365240610Y-188325352D02*
X369240610Y-188325352D01*
X367240610Y-190325352D02*
X367240610Y-186325352D01*
X388671860Y-179660352D02*
X345809360Y-179660352D01*
X388671860Y-198710352D02*
X388671860Y-179660352D01*
%TO.C,SW2*%
X121971860Y-122510352D02*
X121971860Y-141560352D01*
X121971860Y-141560352D02*
X141021860Y-141560352D01*
X141021860Y-122510352D02*
X121971860Y-122510352D01*
X141021860Y-141560352D02*
X141021860Y-122510352D01*
%TO.C,SW35*%
X169596860Y-160610352D02*
X169596860Y-179660352D01*
X169596860Y-179660352D02*
X188646860Y-179660352D01*
X188646860Y-160610352D02*
X169596860Y-160610352D01*
X188646860Y-179660352D02*
X188646860Y-160610352D01*
%TO.C,SW74*%
X102921860Y-217760352D02*
X102921860Y-236810352D01*
X102921860Y-236810352D02*
X126734360Y-236810352D01*
X126734360Y-217760352D02*
X102921860Y-217760352D01*
X126734360Y-236810352D02*
X126734360Y-217760352D01*
%TO.C,SW20*%
X160071860Y-141560352D02*
X160071860Y-160610352D01*
X160071860Y-160610352D02*
X179121860Y-160610352D01*
X179121860Y-141560352D02*
X160071860Y-141560352D01*
X179121860Y-160610352D02*
X179121860Y-141560352D01*
%TO.C,SW56*%
X288659360Y-179660352D02*
X288659360Y-198710352D01*
X288659360Y-198710352D02*
X307709360Y-198710352D01*
X307709360Y-179660352D02*
X288659360Y-179660352D01*
X307709360Y-198710352D02*
X307709360Y-179660352D01*
%TO.C,SW7*%
X217221860Y-122510352D02*
X217221860Y-141560352D01*
X217221860Y-141560352D02*
X236271860Y-141560352D01*
X236271860Y-122510352D02*
X217221860Y-122510352D01*
X236271860Y-141560352D02*
X236271860Y-122510352D01*
%TO.C,SW62*%
X145784360Y-198710352D02*
X145784360Y-217760352D01*
X145784360Y-217760352D02*
X164834360Y-217760352D01*
X164834360Y-198710352D02*
X145784360Y-198710352D01*
X164834360Y-217760352D02*
X164834360Y-198710352D01*
%TO.C,SW31*%
X393434360Y-141560352D02*
X393434360Y-160610352D01*
X393434360Y-160610352D02*
X412484360Y-160610352D01*
X412484360Y-141560352D02*
X393434360Y-141560352D01*
X412484360Y-160610352D02*
X412484360Y-141560352D01*
%TO.C,SW14*%
X350571860Y-122510352D02*
X350571860Y-141560352D01*
X350571860Y-141560352D02*
X369621860Y-141560352D01*
X369621860Y-122510352D02*
X350571860Y-122510352D01*
X369621860Y-141560352D02*
X369621860Y-122510352D01*
%TO.C,SW26*%
X274371860Y-141560352D02*
X274371860Y-160610352D01*
X274371860Y-160610352D02*
X293421860Y-160610352D01*
X293421860Y-141560352D02*
X274371860Y-141560352D01*
X293421860Y-160610352D02*
X293421860Y-141560352D01*
%TO.C,SW66*%
X221984360Y-198710352D02*
X221984360Y-217760352D01*
X221984360Y-217760352D02*
X241034360Y-217760352D01*
X241034360Y-198710352D02*
X221984360Y-198710352D01*
X241034360Y-217760352D02*
X241034360Y-198710352D01*
%TO.C,SW10*%
X274371860Y-122510352D02*
X274371860Y-141560352D01*
X274371860Y-141560352D02*
X293421860Y-141560352D01*
X293421860Y-122510352D02*
X274371860Y-122510352D01*
X293421860Y-141560352D02*
X293421860Y-122510352D01*
%TO.C,SW77*%
X174359360Y-217760352D02*
X174359360Y-236810352D01*
X174359360Y-236810352D02*
X198171860Y-236810352D01*
X198171860Y-217760352D02*
X174359360Y-217760352D01*
X198171860Y-236810352D02*
X198171860Y-217760352D01*
%TO.C,SW1*%
X102921860Y-122510352D02*
X102921860Y-141560352D01*
X102921860Y-141560352D02*
X121971860Y-141560352D01*
X121971860Y-122510352D02*
X102921860Y-122510352D01*
X121971860Y-141560352D02*
X121971860Y-122510352D01*
%TO.C,SW39*%
X245796860Y-160610352D02*
X245796860Y-179660352D01*
X245796860Y-179660352D02*
X264846860Y-179660352D01*
X264846860Y-160610352D02*
X245796860Y-160610352D01*
X264846860Y-179660352D02*
X264846860Y-160610352D01*
%TO.C,SW80*%
X336284360Y-217760352D02*
X336284360Y-236810352D01*
X336284360Y-236810352D02*
X355334360Y-236810352D01*
X355334360Y-217760352D02*
X336284360Y-217760352D01*
X355334360Y-236810352D02*
X355334360Y-217760352D01*
%TO.C,SW32*%
X102921860Y-160610352D02*
X102921860Y-179660352D01*
X102921860Y-179660352D02*
X131496860Y-179660352D01*
X131496860Y-160610352D02*
X102921860Y-160610352D01*
X131496860Y-179660352D02*
X131496860Y-160610352D01*
%TO.C,SW70*%
X298184360Y-198710352D02*
X298184360Y-217760352D01*
X298184360Y-217760352D02*
X317234360Y-217760352D01*
X317234360Y-198710352D02*
X298184360Y-198710352D01*
X317234360Y-217760352D02*
X317234360Y-198710352D01*
%TO.C,SW8*%
X236271860Y-122510352D02*
X236271860Y-141560352D01*
X236271860Y-141560352D02*
X255321860Y-141560352D01*
X255321860Y-122510352D02*
X236271860Y-122510352D01*
X255321860Y-141560352D02*
X255321860Y-122510352D01*
%TO.C,SW53*%
X231509360Y-179660352D02*
X231509360Y-198710352D01*
X231509360Y-198710352D02*
X250559360Y-198710352D01*
X250559360Y-179660352D02*
X231509360Y-179660352D01*
X250559360Y-198710352D02*
X250559360Y-179660352D01*
%TO.C,SW73*%
X393434360Y-198710352D02*
X393434360Y-217760352D01*
X393434360Y-217760352D02*
X412484360Y-217760352D01*
X412484360Y-198710352D02*
X393434360Y-198710352D01*
X412484360Y-217760352D02*
X412484360Y-198710352D01*
%TO.C,SW5*%
X179121860Y-122510352D02*
X179121860Y-141560352D01*
X179121860Y-141560352D02*
X198171860Y-141560352D01*
X198171860Y-122510352D02*
X179121860Y-122510352D01*
X198171860Y-141560352D02*
X198171860Y-122510352D01*
%TO.C,SW27*%
X293421860Y-141560352D02*
X293421860Y-160610352D01*
X293421860Y-160610352D02*
X312471860Y-160610352D01*
X312471860Y-141560352D02*
X293421860Y-141560352D01*
X312471860Y-160610352D02*
X312471860Y-141560352D01*
%TO.C,SW42*%
X302946860Y-160610352D02*
X302946860Y-179660352D01*
X302946860Y-179660352D02*
X321996860Y-179660352D01*
X321996860Y-160610352D02*
X302946860Y-160610352D01*
X321996860Y-179660352D02*
X321996860Y-160610352D01*
%TO.C,SW68*%
X260084360Y-198710352D02*
X260084360Y-217760352D01*
X260084360Y-217760352D02*
X279134360Y-217760352D01*
X279134360Y-198710352D02*
X260084360Y-198710352D01*
X279134360Y-217760352D02*
X279134360Y-198710352D01*
%TO.C,SW51*%
X193409360Y-179660352D02*
X193409360Y-198710352D01*
X193409360Y-198710352D02*
X212459360Y-198710352D01*
X212459360Y-179660352D02*
X193409360Y-179660352D01*
X212459360Y-198710352D02*
X212459360Y-179660352D01*
%TO.C,SW3*%
X141021860Y-122510352D02*
X141021860Y-141560352D01*
X141021860Y-141560352D02*
X160071860Y-141560352D01*
X160071860Y-122510352D02*
X141021860Y-122510352D01*
X160071860Y-141560352D02*
X160071860Y-122510352D01*
%TO.C,SW57*%
X307709360Y-179660352D02*
X307709360Y-198710352D01*
X307709360Y-198710352D02*
X326759360Y-198710352D01*
X326759360Y-179660352D02*
X307709360Y-179660352D01*
X326759360Y-198710352D02*
X326759360Y-179660352D01*
%TO.C,SW25*%
X255321860Y-141560352D02*
X255321860Y-160610352D01*
X255321860Y-160610352D02*
X274371860Y-160610352D01*
X274371860Y-141560352D02*
X255321860Y-141560352D01*
X274371860Y-160610352D02*
X274371860Y-141560352D01*
%TO.C,SW30*%
X350571860Y-141560352D02*
X350571860Y-160610352D01*
X350571860Y-160610352D02*
X388671860Y-160610352D01*
X367621860Y-150085352D02*
X371621860Y-150085352D01*
X369621860Y-152085352D02*
X369621860Y-148085352D01*
X388671860Y-141560352D02*
X350571860Y-141560352D01*
X388671860Y-160610352D02*
X388671860Y-141560352D01*
%TO.C,U1*%
X425429360Y-128995352D02*
X423429360Y-128995352D01*
X423429360Y-126995352D01*
X425429360Y-126995352D01*
X425429360Y-128995352D01*
G36*
X425429360Y-128995352D02*
G01*
X423429360Y-128995352D01*
X423429360Y-126995352D01*
X425429360Y-126995352D01*
X425429360Y-128995352D01*
G37*
X425429360Y-131495352D02*
X423429360Y-131495352D01*
X423429360Y-129495352D01*
X425429360Y-129495352D01*
X425429360Y-131495352D01*
G36*
X425429360Y-131495352D02*
G01*
X423429360Y-131495352D01*
X423429360Y-129495352D01*
X425429360Y-129495352D01*
X425429360Y-131495352D01*
G37*
X425429360Y-133995352D02*
X423429360Y-133995352D01*
X423429360Y-131995352D01*
X425429360Y-131995352D01*
X425429360Y-133995352D01*
G36*
X425429360Y-133995352D02*
G01*
X423429360Y-133995352D01*
X423429360Y-131995352D01*
X425429360Y-131995352D01*
X425429360Y-133995352D01*
G37*
X430629360Y-125295352D02*
X423229360Y-125295352D01*
X423229360Y-120595352D01*
X430629360Y-120595352D01*
X430629360Y-125295352D01*
G36*
X430629360Y-125295352D02*
G01*
X423229360Y-125295352D01*
X423229360Y-120595352D01*
X430629360Y-120595352D01*
X430629360Y-125295352D01*
G37*
%TO.C,SW23*%
X217221860Y-141560352D02*
X217221860Y-160610352D01*
X217221860Y-160610352D02*
X236271860Y-160610352D01*
X236271860Y-141560352D02*
X217221860Y-141560352D01*
X236271860Y-160610352D02*
X236271860Y-141560352D01*
%TO.C,SW79*%
X317234360Y-217760352D02*
X317234360Y-236810352D01*
X317234360Y-236810352D02*
X336284360Y-236810352D01*
X336284360Y-217760352D02*
X317234360Y-217760352D01*
X336284360Y-236810352D02*
X336284360Y-217760352D01*
%TO.C,SW29*%
X331521860Y-141560352D02*
X331521860Y-160610352D01*
X331521860Y-160610352D02*
X350571860Y-160610352D01*
X350571860Y-141560352D02*
X331521860Y-141560352D01*
X350571860Y-160610352D02*
X350571860Y-141560352D01*
%TO.C,SW17*%
X102921860Y-141560352D02*
X102921860Y-160610352D01*
X102921860Y-160610352D02*
X121971860Y-160610352D01*
X121971860Y-141560352D02*
X102921860Y-141560352D01*
X121971860Y-160610352D02*
X121971860Y-141560352D01*
%TO.C,SW13*%
X331521860Y-122510352D02*
X331521860Y-141560352D01*
X331521860Y-141560352D02*
X350571860Y-141560352D01*
X350571860Y-122510352D02*
X331521860Y-122510352D01*
X350571860Y-141560352D02*
X350571860Y-122510352D01*
%TO.C,SW24*%
X236271860Y-141560352D02*
X236271860Y-160610352D01*
X236271860Y-160610352D02*
X255321860Y-160610352D01*
X255321860Y-141560352D02*
X236271860Y-141560352D01*
X255321860Y-160610352D02*
X255321860Y-141560352D01*
%TO.C,SW12*%
X312471860Y-122510352D02*
X312471860Y-141560352D01*
X312471860Y-141560352D02*
X331521860Y-141560352D01*
X331521860Y-122510352D02*
X312471860Y-122510352D01*
X331521860Y-141560352D02*
X331521860Y-122510352D01*
%TO.C,SW28*%
X312471860Y-141560352D02*
X312471860Y-160610352D01*
X312471860Y-160610352D02*
X331521860Y-160610352D01*
X331521860Y-141560352D02*
X312471860Y-141560352D01*
X331521860Y-160610352D02*
X331521860Y-141560352D01*
%TO.C,SW65*%
X202934360Y-198710352D02*
X202934360Y-217760352D01*
X202934360Y-217760352D02*
X221984360Y-217760352D01*
X221984360Y-198710352D02*
X202934360Y-198710352D01*
X221984360Y-217760352D02*
X221984360Y-198710352D01*
%TO.C,SW61*%
X102921860Y-198710352D02*
X102921860Y-217760352D01*
X102921860Y-217760352D02*
X145784360Y-217760352D01*
X122353110Y-207375352D02*
X126353110Y-207375352D01*
X124353110Y-209375352D02*
X124353110Y-205375352D01*
X145784360Y-198710352D02*
X102921860Y-198710352D01*
X145784360Y-217760352D02*
X145784360Y-198710352D01*
%TO.C,SW21*%
X179121860Y-141560352D02*
X179121860Y-160610352D01*
X179121860Y-160610352D02*
X198171860Y-160610352D01*
X198171860Y-141560352D02*
X179121860Y-141560352D01*
X198171860Y-160610352D02*
X198171860Y-141560352D01*
%TO.C,SW69*%
X279134360Y-198710352D02*
X279134360Y-217760352D01*
X279134360Y-217760352D02*
X298184360Y-217760352D01*
X298184360Y-198710352D02*
X279134360Y-198710352D01*
X298184360Y-217760352D02*
X298184360Y-198710352D01*
%TO.C,SW76*%
X150546860Y-217760352D02*
X150546860Y-236810352D01*
X150546860Y-236810352D02*
X174359360Y-236810352D01*
X174359360Y-217760352D02*
X150546860Y-217760352D01*
X174359360Y-236810352D02*
X174359360Y-217760352D01*
%TO.C,SW63*%
X164834360Y-198710352D02*
X164834360Y-217760352D01*
X164834360Y-217760352D02*
X183884360Y-217760352D01*
X183884360Y-198710352D02*
X164834360Y-198710352D01*
X183884360Y-217760352D02*
X183884360Y-198710352D01*
%TO.C,SW67*%
X241034360Y-198710352D02*
X241034360Y-217760352D01*
X241034360Y-217760352D02*
X260084360Y-217760352D01*
X260084360Y-198710352D02*
X241034360Y-198710352D01*
X260084360Y-217760352D02*
X260084360Y-198710352D01*
%TO.C,SW34*%
X150546860Y-160610352D02*
X150546860Y-179660352D01*
X150546860Y-179660352D02*
X169596860Y-179660352D01*
X169596860Y-160610352D02*
X150546860Y-160610352D01*
X169596860Y-179660352D02*
X169596860Y-160610352D01*
%TO.C,SW78*%
X198171760Y-217760352D02*
X198171760Y-236810352D01*
X198171760Y-236810352D02*
X317234260Y-236810352D01*
X317234260Y-217760352D02*
X198171760Y-217760352D01*
X317234260Y-236810352D02*
X317234260Y-217760352D01*
%TO.C,SW16*%
X393434360Y-122510352D02*
X393434360Y-141560352D01*
X393434360Y-141560352D02*
X412484360Y-141560352D01*
X412484360Y-122510352D02*
X393434360Y-122510352D01*
X412484360Y-141560352D02*
X412484360Y-122510352D01*
%TO.C,SW19*%
X141021860Y-141560352D02*
X141021860Y-160610352D01*
X141021860Y-160610352D02*
X160071860Y-160610352D01*
X160071860Y-141560352D02*
X141021860Y-141560352D01*
X160071860Y-160610352D02*
X160071860Y-141560352D01*
%TO.C,SW47*%
X102921860Y-179660352D02*
X102921860Y-198710352D01*
X102921860Y-198710352D02*
X136259360Y-198710352D01*
X136259360Y-179660352D02*
X102921860Y-179660352D01*
X136259360Y-198710352D02*
X136259360Y-179660352D01*
%TO.C,SW55*%
X269609360Y-179660352D02*
X269609360Y-198710352D01*
X269609360Y-198710352D02*
X288659360Y-198710352D01*
X288659360Y-179660352D02*
X269609360Y-179660352D01*
X288659360Y-198710352D02*
X288659360Y-179660352D01*
%TO.C,SW48*%
X136259360Y-179660352D02*
X136259360Y-198710352D01*
X136259360Y-198710352D02*
X155309360Y-198710352D01*
X155309360Y-179660352D02*
X136259360Y-179660352D01*
X155309360Y-198710352D02*
X155309360Y-179660352D01*
%TO.C,SW40*%
X264846860Y-160610352D02*
X264846860Y-179660352D01*
X264846860Y-179660352D02*
X283896860Y-179660352D01*
X283896860Y-160610352D02*
X264846860Y-160610352D01*
X283896860Y-179660352D02*
X283896860Y-160610352D01*
%TO.C,SW64*%
X183884360Y-198710352D02*
X183884360Y-217760352D01*
X183884360Y-217760352D02*
X202934360Y-217760352D01*
X202934360Y-198710352D02*
X183884360Y-198710352D01*
X202934360Y-217760352D02*
X202934360Y-198710352D01*
%TO.C,SW49*%
X155309360Y-179660352D02*
X155309360Y-198710352D01*
X155309360Y-198710352D02*
X174359360Y-198710352D01*
X174359360Y-179660352D02*
X155309360Y-179660352D01*
X174359360Y-198710352D02*
X174359360Y-179660352D01*
%TO.C,SW72*%
X336284360Y-198710352D02*
X336284360Y-217760352D01*
X336284360Y-217760352D02*
X388671860Y-217760352D01*
X360455110Y-207365352D02*
X364455110Y-207365352D01*
X362455110Y-209365352D02*
X362455110Y-205365352D01*
X388671860Y-198710352D02*
X336284360Y-198710352D01*
X388671860Y-217760352D02*
X388671860Y-198710352D01*
%TO.C,SW11*%
X293421860Y-122510352D02*
X293421860Y-141560352D01*
X293421860Y-141560352D02*
X312471860Y-141560352D01*
X312471860Y-122510352D02*
X293421860Y-122510352D01*
X312471860Y-141560352D02*
X312471860Y-122510352D01*
%TD*%
M02*
